<svg width="96" height="96" viewBox="0 0 96 96" fill="none" xmlns="http://www.w3.org/2000/svg">
<g clip-path="url(#clip0_715_2)">
<path d="M48 0C21.4904 0 0 20.8036 0 46.4662C0 72.1287 21.4904 92.9323 48 92.9323C74.5097 92.9323 96 72.1287 96 46.4662C96 20.8036 74.5097 0 48 0ZM48 91.175C29.7834 91.175 15.0158 71.1582 15.0158 46.4661C15.0158 21.7741 29.7833 1.75731 48 1.75731C66.2167 1.75731 80.9842 21.7741 80.9842 46.4661C80.9842 71.1582 66.2167 91.175 48 91.175Z" fill="#51ABF7"/>
<path d="M87.1323 77.0626C86.5825 78.9689 85.9626 80.463 85.2744 81.5448C84.5862 82.6266 83.6537 83.5699 82.475 84.3763C81.1382 85.2932 79.3593 86.0171 77.1385 86.5498C74.9176 87.0791 72.5692 87.3463 70.0932 87.3463C67.1842 87.3463 64.286 86.9439 61.3967 86.1425C58.5075 85.3377 55.9021 84.2262 53.5842 82.808C53.5285 82.8359 51.29 81.1972 51.234 81.2249L50.7022 80.8489C47.4356 78.7001 45.0746 77.1961 43.6192 76.3353C42.1638 75.4762 40.7479 74.7769 39.3715 74.2393C36.1445 72.986 32.7808 72.3594 29.2789 72.3594C26.7388 72.3594 24.1843 72.6496 21.6141 73.2276C21.4863 73.2564 21.3584 73.2858 21.2305 73.316C21.3459 73.5459 22.0392 74.7578 22.0487 74.7549C22.232 74.6997 22.4119 74.6504 22.5887 74.6069C23.2429 74.4459 23.8528 74.3647 24.4185 74.3647C26.422 74.3647 28.3859 74.9781 30.3103 76.2034C32.2346 77.4303 34.5723 79.5576 37.3214 82.587L39.1523 84.4966L39.5045 84.8825C43.0747 88.992 46.4294 91.8351 49.5684 93.4133C53.0577 95.1382 57.3737 96.0007 62.5143 96.0007C71.3402 96.0007 78.0872 93.7448 82.7571 89.2329C84.5216 87.5228 85.8045 85.7483 86.6095 83.9129C87.4144 82.0758 87.8942 79.8281 88.0523 77.1714L87.1323 77.0626Z" fill="#51ABF7"/>
<path d="M33.5683 51.9221C33.8435 52.1001 34.1525 52.2393 34.4954 52.3401C34.8382 52.4407 35.1822 52.4911 35.5274 52.4911C35.8213 52.4911 36.1 52.4577 36.3635 52.3913C36.627 52.3247 36.8382 52.2341 36.9968 52.1195C37.1367 52.0186 37.2475 51.9005 37.3291 51.7651C37.4107 51.6297 37.4842 51.4427 37.5496 51.2041L37.6615 51.2178C37.6428 51.5504 37.5856 51.8315 37.4901 52.0615C37.3945 52.2915 37.2417 52.5135 37.0318 52.7277C36.4766 53.2924 35.6743 53.5748 34.6248 53.5748C34.0137 53.5748 33.5006 53.4672 33.0855 53.2519C32.7123 53.0549 32.3134 52.6999 31.889 52.1869L31.847 52.1389C31.4365 52.1389 31.0109 52.0768 30.5701 51.9525C30.1293 51.8283 29.7152 51.6532 29.3281 51.4271C28.563 50.9843 27.9695 50.4037 27.5474 49.6852C27.1251 48.9668 26.9141 48.185 26.9141 47.3399C26.9141 46.5853 27.0821 45.8838 27.4179 45.2354C27.7538 44.5869 28.2435 44.0209 28.8873 43.5374C29.3584 43.1805 29.8739 42.9059 30.4336 42.7139C30.9934 42.5219 31.5554 42.4258 32.1199 42.4258C32.7822 42.4258 33.4259 42.5546 34.051 42.8122C34.5269 43.0156 34.9711 43.2878 35.384 43.629C35.7968 43.9702 36.1454 44.3553 36.43 44.7846C36.9339 45.5439 37.1857 46.3708 37.1857 47.2655C37.1857 47.8393 37.0795 48.394 36.8674 48.9295C36.655 49.4651 36.3484 49.9565 35.9473 50.4038C35.616 50.7744 35.2661 51.0771 34.8977 51.3121C34.5292 51.5471 34.0861 51.7505 33.5683 51.9221ZM29.664 50.7436C30.0044 50.6487 30.3427 50.6013 30.6785 50.6013C31.0936 50.6013 31.4925 50.6803 31.875 50.8384C32.0382 50.9061 32.2062 50.9942 32.3788 51.1025C32.5513 51.2109 32.8312 51.4006 33.2185 51.6715L33.2814 51.7189C33.5846 51.5608 33.847 51.3755 34.0686 51.1631C34.2901 50.9508 34.5059 50.6729 34.7158 50.3294C35.2336 49.5024 35.4925 48.5353 35.4925 47.4282C35.4925 46.7051 35.391 46.0161 35.1881 45.3607C34.9852 44.7055 34.6994 44.1542 34.331 43.7069C34.0324 43.3409 33.7 43.072 33.3339 42.9002C32.9677 42.7285 32.5398 42.6426 32.05 42.6426C31.5555 42.6426 31.1252 42.7274 30.759 42.8968C30.3928 43.0664 30.0604 43.3364 29.762 43.7069C29.3981 44.1544 29.1147 44.7047 28.9118 45.3577C28.7089 46.0107 28.6074 46.6988 28.6074 47.4219C28.6074 48.0907 28.6914 48.6885 28.8593 49.2149C29.0272 49.7414 29.2954 50.251 29.664 50.7436ZM31.6861 51.9492L31.6371 51.895C31.3105 51.5157 31.033 51.2493 30.8045 51.0957C30.5759 50.9423 30.3427 50.8655 30.1048 50.8655C30.0161 50.8655 29.9182 50.8836 29.8109 50.9196C30.1048 51.2493 30.3927 51.491 30.675 51.6444C30.9572 51.798 31.2943 51.8996 31.6861 51.9492Z" fill="#51ABF7"/>
<path d="M39.9497 43.8862V49.779C39.9497 50.2442 39.9765 50.5874 40.0302 50.8086C40.0838 51.0299 40.1829 51.2128 40.3276 51.3572C40.4581 51.4882 40.6062 51.583 40.7718 51.6417C40.9374 51.7005 41.1532 51.7365 41.419 51.7501V51.9059H38.1934V51.7501C38.4593 51.7365 38.675 51.7005 38.8407 51.6417C39.0062 51.583 39.1543 51.4882 39.285 51.3572C39.4295 51.2128 39.5286 51.0287 39.5823 50.8052C39.6359 50.5817 39.6628 50.2396 39.6628 49.779V44.7803C39.6628 44.3242 39.6359 43.9844 39.5823 43.7609C39.5286 43.5373 39.4295 43.3534 39.285 43.2088C39.159 43.0779 39.0132 42.9831 38.8477 42.9244C38.682 42.8657 38.4639 42.8295 38.1934 42.816V42.6602H40.8873L46.5688 49.6775V44.7871C46.5688 44.322 46.542 43.9788 46.4884 43.7575C46.4347 43.5363 46.3355 43.3535 46.191 43.2089C46.0604 43.078 45.9123 42.9831 45.7467 42.9244C45.5811 42.8658 45.3654 42.8296 45.0995 42.8161V42.6603H48.3251V42.8161C47.8586 42.8161 47.4948 42.9471 47.2336 43.2089C47.0889 43.3535 46.9898 43.5374 46.9362 43.7609C46.8825 43.9844 46.8557 44.3243 46.8557 44.7803V51.9059H46.5409L39.9497 43.8862Z" fill="#51ABF7"/>
<path d="M58.7579 51.9059H54.1609V51.7501C54.576 51.714 54.8651 51.6463 55.0285 51.5469C55.3177 51.3708 55.4623 51.1269 55.4623 50.8154C55.4623 50.6302 55.3969 50.3818 55.2664 50.0703L55.1474 49.7858L54.4757 48.1873H51.397L51.0332 49.122L50.8583 49.542C50.6483 50.0388 50.5434 50.4293 50.5434 50.7138C50.5434 50.8809 50.5819 51.0367 50.6588 51.1811C50.7358 51.3258 50.8396 51.4431 50.9702 51.5334C51.1521 51.6553 51.3853 51.7276 51.6699 51.7501V51.9059H48.5352V51.7501C48.7824 51.7366 48.9993 51.678 49.186 51.574C49.3725 51.4702 49.5544 51.3031 49.7317 51.0728C49.881 50.8877 50.0267 50.6495 50.1691 50.3582C50.3113 50.0669 50.499 49.63 50.7323 49.0475L53.2932 42.6602H53.692L56.7357 49.779C56.9642 50.3165 57.1461 50.7003 57.2815 50.9305C57.4167 51.1608 57.5637 51.3347 57.7223 51.4521C57.8342 51.5334 57.9625 51.5955 58.1071 51.6384C58.2516 51.6813 58.4686 51.7186 58.7578 51.7501L58.7579 51.9059ZM54.3637 47.9096L52.8944 44.4009L51.509 47.9096H54.3637Z" fill="#51ABF7"/>
<path d="M60.7094 43.8862V49.779C60.7094 50.2442 60.7362 50.5874 60.7899 50.8086C60.8434 51.0299 60.9426 51.2128 61.0872 51.3572C61.2178 51.4882 61.3659 51.583 61.5315 51.6417C61.697 51.7005 61.9128 51.7365 62.1787 51.7501V51.9059H58.9531V51.7501C59.219 51.7365 59.4347 51.7005 59.6003 51.6417C59.7658 51.583 59.914 51.4882 60.0446 51.3572C60.1892 51.2128 60.2883 51.0287 60.342 50.8052C60.3956 50.5817 60.4225 50.2396 60.4225 49.779V44.7803C60.4225 44.3242 60.3956 43.9844 60.342 43.7609C60.2883 43.5373 60.1892 43.3534 60.0446 43.2088C59.9187 43.0779 59.7728 42.9831 59.6073 42.9244C59.4417 42.8657 59.2236 42.8295 58.9531 42.816V42.6602H61.647L67.3285 49.6775V44.7871C67.3285 44.322 67.3016 43.9788 67.248 43.7575C67.1944 43.5363 67.0952 43.3535 66.9507 43.2089C66.82 43.078 66.6719 42.9831 66.5064 42.9244C66.3407 42.8658 66.125 42.8296 65.8592 42.8161V42.6603H69.0848V42.8161C68.6183 42.8161 68.2544 42.9471 67.9932 43.2089C67.8486 43.3535 67.7494 43.5374 67.6959 43.7609C67.6422 43.9844 67.6154 44.3243 67.6154 44.7803V51.9059H67.3005L60.7094 43.8862Z" fill="#51ABF7"/>
</g>
<defs>
<clipPath id="clip0_715_2">
<rect width="96" height="96" fill="white"/>
</clipPath>
</defs>
</svg>
