<svg width="289" height="78" viewBox="0 0 289 78" fill="none" xmlns="http://www.w3.org/2000/svg">
<path d="M71.2957 60.6297L71.191 61.0241C70.7655 62.627 70.2852 63.8927 69.7638 64.7863C69.252 65.663 68.5454 66.4407 67.6635 67.0975C66.6557 67.8502 65.2843 68.4559 63.5875 68.8988C61.8689 69.3468 60.026 69.574 58.1099 69.574C55.8566 69.574 53.5783 69.2295 51.3386 68.5499C49.4242 67.9688 47.6529 67.1898 46.0602 66.2285C49.1635 65.1014 51.8823 63.7754 54.1526 62.28C56.6426 60.6398 59.0384 58.4991 61.2723 55.9172C63.9792 52.7985 66.0789 49.3227 67.513 45.5865C68.9473 41.847 69.6744 37.9207 69.6744 33.9157C69.6744 27.6679 67.9479 21.8129 64.5433 16.5124C62.6231 13.5202 60.2375 10.7979 57.453 8.42083C54.669 6.04378 51.6293 4.11933 48.4122 2.69939C40.5949 -0.629143 32.0838 -0.903172 23.8645 2.00922C20.0875 3.34809 16.5614 5.28754 13.3856 7.77316C9.04245 11.1436 5.68975 15.1467 3.42106 19.6717C1.15112 24.1989 0 29.1645 0 34.4298C0 40.3277 1.4464 45.8603 4.29899 50.8743C7.15095 55.8891 11.2163 59.998 16.381 63.0857C18.9922 64.6613 21.8256 65.8997 24.803 66.7657C27.7034 67.6105 30.5482 68.0498 33.2624 68.0721L33.396 68.2299C36.2615 71.8078 39.0028 74.3249 41.547 75.7123C44.3804 77.2304 47.9205 78 52.069 78C59.192 78 64.7257 75.9808 68.516 71.9977C69.9549 70.4819 71.0187 68.8827 71.6778 67.245C72.334 65.6144 72.731 63.6018 72.8581 61.2636L72.8819 60.8289L71.2957 60.6297ZM21.8196 59.2699C23.3062 59.2699 24.792 59.7776 26.2357 60.7788C27.6079 61.7318 29.2825 63.362 31.2244 65.6371C29.1885 65.2604 27.3897 64.6381 25.8643 63.7806C24.1858 62.8377 22.446 61.3717 20.6864 59.4172C21.0921 59.3193 21.4712 59.2699 21.8196 59.2699ZM42.9307 63.9965C40.3394 62.124 38.4423 60.7961 37.292 60.0499C36.119 59.2891 34.961 58.6623 33.8499 58.1861C31.243 57.074 28.4873 56.5099 25.6591 56.5099C23.4831 56.5099 21.2636 56.8168 19.0579 57.4222C16.7302 54.1553 15.0056 50.7359 13.931 47.2546C12.8259 43.6763 12.2655 39.5521 12.2655 34.9968C12.2655 30.0672 12.9442 25.3115 14.2827 20.861C15.618 16.4232 17.5054 12.6354 19.8935 9.60154C21.8365 7.11009 24.0251 5.27088 26.3991 4.1356C28.7753 2.9999 31.6141 2.4237 34.837 2.4237C38.0265 2.4237 40.8491 3.00719 43.226 4.15748C45.6007 5.30881 47.791 7.14113 49.7372 9.60528C52.1544 12.6381 54.0568 16.432 55.3911 20.8816C56.7295 25.3486 57.4084 30.1127 57.4084 35.0408C57.4084 42.5722 55.6824 49.2387 52.2757 54.8592C50.8989 57.1869 49.4663 59.0945 48.0178 60.5286C46.6374 61.8952 44.992 63.1113 43.1234 64.1462L42.9307 63.9965Z" fill="black"/>
<path d="M149.597 0.929688H125.675V4.28199L126.781 4.34034C128.435 4.42786 129.778 4.65644 130.772 5.02049C131.708 5.36308 132.561 5.92906 133.308 6.70238C134.134 7.55676 134.688 8.61911 135 9.95049C135.337 11.3865 135.508 13.6914 135.508 16.8009V47.2266L99.2211 0.929891H79.457V4.28344L80.5644 4.34095C82.2494 4.42806 83.6079 4.65707 84.6012 5.02049C85.5304 5.36079 86.3629 5.92135 87.0904 6.70238C87.9158 7.5553 88.4693 8.62493 88.7823 9.97068C89.1196 11.4254 89.2907 13.7075 89.2907 16.7545V51.3114C89.2907 54.389 89.1197 56.6871 88.7827 58.1412C88.4737 59.4699 87.9043 60.5697 87.09 61.4114C86.3435 62.1841 85.4904 62.7497 84.5546 63.0922C83.5629 63.4563 82.2202 63.6847 80.5638 63.7718L79.4575 63.8297V67.1828H103.379V63.8297L102.273 63.7718C100.616 63.6847 99.2734 63.4561 98.2817 63.0922C97.3457 62.7497 96.4932 62.1845 95.7461 61.4095C94.9199 60.5574 94.3666 59.4951 94.054 58.1627C93.7175 56.7286 93.5466 54.4236 93.5466 51.3114V13.9167L135.925 67.1828H139.764V16.7545C139.764 13.7048 139.935 11.4225 140.272 9.97112C140.584 8.62495 141.137 7.55592 141.964 6.70154C143.498 5.11406 145.612 4.34243 148.429 4.34243H149.597L149.597 0.929688Z" fill="black"/>
<path d="M264.605 0.929891V4.28219L265.711 4.34054C267.364 4.42807 268.707 4.65665 269.702 5.0207C270.638 5.36328 271.491 5.92926 272.238 6.70258C273.064 7.55654 273.617 8.6193 273.93 9.95026C274.267 11.3875 274.438 13.6925 274.438 16.8011V47.2268L238.151 0.930095H218.387V4.28364L219.495 4.34115C221.18 4.42826 222.538 4.65727 223.531 5.0207C224.461 5.36099 225.293 5.92155 226.021 6.70258C226.846 7.55592 227.399 8.62515 227.712 9.97132C228.05 11.425 228.221 13.7077 228.221 16.7547V51.3116C228.221 54.3897 228.05 56.6877 227.712 58.1414C227.404 59.4701 226.835 60.5699 226.02 61.411C225.273 62.1841 224.42 62.7499 223.484 63.0922C222.493 63.4563 221.15 63.6847 219.494 63.7718L218.697 63.8134L218.375 63.7772C216.519 63.5684 215.125 63.3233 214.232 63.0487C213.399 62.7936 212.653 62.4219 212.023 61.9503C211.091 61.2374 210.202 60.1421 209.379 58.6943C208.502 57.1539 207.295 54.5205 205.791 50.8646L185.123 0.929688H180.874L163.446 45.8319C161.902 49.8154 160.645 52.8382 159.71 54.8156C158.797 56.7446 157.858 58.3333 156.903 59.5572C155.817 61.0136 154.707 62.0737 153.604 62.7078C152.521 63.3308 151.229 63.6888 149.766 63.7716L148.664 63.8341V67.1826H171.978V63.8614L170.905 63.7734C169.218 63.6357 167.834 63.2002 166.806 62.4885C166.078 61.969 165.514 61.3085 165.081 60.4693C164.649 59.6303 164.439 58.7486 164.439 57.7734C164.439 55.9688 165.119 53.3921 166.461 50.1092L167.642 47.1812L169.792 41.4754H188.802L193.797 53.7639C194.61 55.7685 195.022 57.3541 195.022 58.4759C195.022 60.2161 194.251 61.547 192.665 62.5446C192.025 62.9464 190.588 63.4865 187.376 63.7743L186.312 63.8695V67.1824H218.388H219.412H242.31V63.8293L241.203 63.7714C239.546 63.6843 238.204 63.4556 237.212 63.0918C236.276 62.7492 235.423 62.1841 234.676 61.4091C233.85 60.5566 233.296 59.4947 232.984 58.1618C232.647 56.7286 232.476 54.4232 232.476 51.311V13.9163L274.855 67.1824H278.693V16.754C278.693 13.7043 278.865 11.4221 279.202 9.97028C279.514 8.62473 280.067 7.55593 280.894 6.70113C282.428 5.11365 284.542 4.34199 287.359 4.34199H288.527V0.929688L264.605 0.929891ZM171.429 37.2198L179.036 17.3192L187.104 37.2198H171.429Z" fill="black"/>
</svg>
